# xmcd
#
# Track frame offsets: 
#        150
#        16207
#        36247
#        60840
#        86242
#        106920
#        129435
#        150582
#        169947
#        192525
#        214240
#        233227
#        254937
#        278627
#        299985
#
# Disc length: 4273 seconds
#
# Revision: 9
# Processed by: cddbd v1.5.2PL0 Copyright (c) Steve Scherf et al.
# Submitted via: ExactAudioCopy v0.99pb5
#
DISCID=e210af0f
DTITLE=许茹芸 - 单身日记
DYEAR=2001
DGENRE=Pop
TTITLE0=单身日记(四季歌)
TTITLE1=再说你也不会懂
TTITLE2=如果云知道
TTITLE3=我依然爱你
TTITLE4=独角戏
TTITLE5=泪海
TTITLE6=看透
TTITLE7=美梦成真
TTITLE8=爱只剩一秒
TTITLE9=爱不爱你都一样
TTITLE10=舍不得
TTITLE11=难得好天气
TTITLE12=日光机场
TTITLE13=一直是晴天
TTITLE14=Don't Say Good Bye
EXTD=YEAR: 2001
EXTT0=虫ōらO (|uq)
EXTT1=
EXTT2=
EXTT3=
EXTT4=
EXTT5=
EXTT6=
EXTT7=
EXTT8=
EXTT9=
EXTT10=
EXTT11=
EXTT12=
EXTT13=
EXTT14=
PLAYORDER=
